<svg width="40" height="40" viewBox="0 0 40 40" fill="none" xmlns="http://www.w3.org/2000/svg">
<path d="M31.6665 3.33337H14.9998C13.1615 3.33337 11.6665 4.82837 11.6665 6.66671V15.9767L3.82147 23.8217C3.58846 24.0548 3.42978 24.3517 3.3655 24.675C3.30122 24.9982 3.33423 25.3333 3.46034 25.6378C3.58646 25.9423 3.80003 26.2026 4.07404 26.3857C4.34806 26.5689 4.67022 26.6666 4.99981 26.6667V35C4.99981 35.4421 5.1754 35.866 5.48796 36.1786C5.80052 36.4911 6.22445 36.6667 6.66647 36.6667H33.3331C33.7752 36.6667 34.1991 36.4911 34.5117 36.1786C34.8242 35.866 34.9998 35.4421 34.9998 35V6.66671C34.9998 4.82837 33.5048 3.33337 31.6665 3.33337ZM18.3331 33.3334H8.33314V24.0234L13.3331 19.0234L18.3331 24.0234V33.3334ZM31.6665 33.3334H21.6665V26.6667C21.9964 26.6674 22.3191 26.5701 22.5937 26.3871C22.8682 26.2041 23.0822 25.9437 23.2084 25.6388C23.3347 25.334 23.3675 24.9985 23.3028 24.675C23.238 24.3515 23.0786 24.0545 22.8448 23.8217L14.9998 15.9767V6.66671H31.6665V33.3334Z" fill="#F0F3FA"/>
<path d="M18.3332 10H21.6665V13.3333H18.3332V10ZM24.9998 10H28.3332V13.3333H24.9998V10ZM24.9998 16.7183H28.3332V20H24.9998V16.7183ZM24.9998 23.3333H28.3332V26.6667H24.9998V23.3333ZM11.6665 25H14.9998V28.3333H11.6665V25Z" fill="#F0F3FA"/>
</svg>
