<svg width="40" height="40" viewBox="0 0 40 40" fill="none" xmlns="http://www.w3.org/2000/svg">
<path d="M17.2227 6.11101C17.2227 4.49023 16.5789 2.93585 15.4328 1.78979C14.2868 0.643727 12.7324 -0.00012207 11.1116 -0.00012207C9.49084 -0.00012207 7.93645 0.643727 6.79039 1.78979C5.64434 2.93585 5.00049 4.49023 5.00049 6.11101C5.00049 7.73178 5.64434 9.28617 6.79039 10.4322C7.93645 11.5783 9.49084 12.2221 11.1116 12.2221C12.7324 12.2221 14.2868 11.5783 15.4328 10.4322C16.5789 9.28617 17.2227 7.73178 17.2227 6.11101V6.11101ZM7.22271 6.11101C7.22271 5.60031 7.3233 5.09461 7.51874 4.62279C7.71417 4.15097 8.00063 3.72226 8.36174 3.36114C8.72286 3.00002 9.15157 2.71357 9.62339 2.51813C10.0952 2.3227 10.6009 2.22211 11.1116 2.22211C11.6223 2.22211 12.128 2.3227 12.5998 2.51813C13.0716 2.71357 13.5004 3.00002 13.8615 3.36114C14.2226 3.72226 14.509 4.15097 14.7045 4.62279C14.8999 5.09461 15.0005 5.60031 15.0005 6.11101C15.0005 7.14241 14.5908 8.13156 13.8615 8.86087C13.1322 9.59018 12.143 9.99991 11.1116 9.99991C10.0802 9.99991 9.09105 9.59018 8.36174 8.86087C7.63244 8.13156 7.22271 7.14241 7.22271 6.11101V6.11101Z" fill="#F0F3FA"/>
<path d="M3.33336 14.444H12.629C12.2645 15.1328 11.9934 15.8795 11.8334 16.6661H3.33336C3.03867 16.6661 2.75605 16.7832 2.54768 16.9916C2.3393 17.1999 2.22224 17.4826 2.22224 17.7772V18.8883C2.22224 21.6883 4.66448 24.6971 9.10229 25.3993C8.38673 25.8882 7.79117 26.5393 7.36672 27.297C2.6778 26.0282 0 22.4149 0 18.8883V17.7772C0 16.8932 0.351192 16.0454 0.976318 15.4203C1.60144 14.7952 2.4493 14.444 3.33336 14.444V14.444Z" fill="#F0F3FA"/>
<path d="M15.2876 14.4441C16.4076 13.0885 18.1032 12.2218 20.001 12.2218C21.3318 12.2195 22.6268 12.6526 23.6885 13.4551C24.7502 14.2576 25.5202 15.3853 25.881 16.6663C26.2026 17.8096 26.1845 19.0219 25.8288 20.1551C25.4732 21.2883 24.7953 22.2935 23.878 23.0479C22.9607 23.8024 21.8437 24.2736 20.6631 24.4039C19.4826 24.5342 18.2896 24.3181 17.2298 23.7819C16.4139 23.3666 15.7016 22.7733 15.1458 22.0458C14.5899 21.3182 14.2046 20.4751 14.0184 19.5787C13.8322 18.6822 13.8497 17.7554 14.0698 16.8667C14.2899 15.9779 14.7068 15.15 15.2898 14.4441H15.2876ZM16.4876 16.6663C16.2687 17.128 16.143 17.6282 16.1174 18.1385C16.0919 18.6488 16.1671 19.1591 16.3388 19.6403C16.5105 20.1216 16.7753 20.5643 17.118 20.9431C17.4608 21.322 17.8748 21.6297 18.3365 21.8486C18.7982 22.0674 19.2984 22.1932 19.8087 22.2188C20.319 22.2443 20.8293 22.1691 21.3106 21.9974C21.7918 21.8257 22.2345 21.5609 22.6133 21.2181C22.9922 20.8754 23.2999 20.4613 23.5188 19.9997C23.9608 19.067 24.0142 17.9969 23.6673 17.0248C23.3203 16.0527 22.6014 15.2583 21.6687 14.8163C20.7361 14.3742 19.666 14.3208 18.6939 14.6678C17.7219 15.0147 16.9274 15.7336 16.4854 16.6663H16.4876Z" fill="#F0F3FA"/>
<path d="M32.6335 27.2975C32.2103 26.5393 31.616 25.8903 30.898 25.4019C35.3335 24.6975 37.778 21.6863 37.778 18.8885V17.7774C37.778 17.4827 37.6609 17.2 37.4525 16.9917C37.2442 16.7833 36.9616 16.6662 36.6669 16.6662H28.1669C28.0099 15.8914 27.7427 15.1431 27.3735 14.444H36.6669C37.5509 14.444 38.3988 14.7952 39.0239 15.4203C39.649 16.0454 40.0002 16.8933 40.0002 17.7774V18.8885C40.0002 22.4152 37.3202 26.0264 32.6335 27.2975V27.2975Z" fill="#F0F3FA"/>
<path d="M29.9715 27.4887C29.3848 26.9776 28.6181 26.6665 27.7781 26.6665H12.2225C11.7844 26.6653 11.3505 26.7508 10.9455 26.9179C10.5406 27.085 10.1726 27.3305 9.86287 27.6402C9.55311 27.95 9.30762 28.3179 9.14052 28.7229C8.97342 29.1278 8.888 29.5618 8.88917 29.9999V31.111C8.88917 35.491 13.0225 39.9999 20.0003 39.9999C26.9781 39.9999 31.1115 35.491 31.1115 31.111V29.9999C31.1115 28.9999 30.6715 28.1021 29.9715 27.4887V27.4887ZM11.1114 29.9999C11.1114 29.7052 11.2285 29.4226 11.4368 29.2142C11.6452 29.0058 11.9278 28.8887 12.2225 28.8887H27.7781C28.0728 28.8887 28.3554 29.0058 28.5638 29.2142C28.7722 29.4226 28.8892 29.7052 28.8892 29.9999V31.111C28.8892 34.3065 25.707 37.7777 20.0003 37.7777C14.2936 37.7777 11.1114 34.3065 11.1114 31.111V29.9999Z" fill="#F0F3FA"/>
<path d="M28.889 -0.00012207C30.5097 -0.00012207 32.0641 0.643727 33.2102 1.78979C34.3562 2.93585 35.0001 4.49023 35.0001 6.11101C35.0001 7.73178 34.3562 9.28617 33.2102 10.4322C32.0641 11.5783 30.5097 12.2221 28.889 12.2221C27.2682 12.2221 25.7138 11.5783 24.5677 10.4322C23.4217 9.28617 22.7778 7.73178 22.7778 6.11101C22.7778 4.49023 23.4217 2.93585 24.5677 1.78979C25.7138 0.643727 27.2682 -0.00012207 28.889 -0.00012207V-0.00012207ZM28.889 2.22211C27.8576 2.22211 26.8684 2.63183 26.1391 3.36114C25.4098 4.09045 25.0001 5.07961 25.0001 6.11101C25.0001 7.14241 25.4098 8.13156 26.1391 8.86087C26.8684 9.59018 27.8576 9.99991 28.889 9.99991C29.9203 9.99991 30.9095 9.59018 31.6388 8.86087C32.3681 8.13156 32.7778 7.14241 32.7778 6.11101C32.7778 5.07961 32.3681 4.09045 31.6388 3.36114C30.9095 2.63183 29.9203 2.22211 28.889 2.22211V2.22211Z" fill="#F0F3FA"/>
</svg>
